<mxfile host="app.diagrams.net" modified="2023-09-21T03:56:11.697Z" agent="Mozilla/5.0 (Windows NT 10.0; Win64; x64) AppleWebKit/537.36 (KHTML, like Gecko) Chrome/105.0.0.0 Safari/537.36" etag="FbM2E58EpXoX9yUvtzpq" version="21.8.0" type="google">
  <diagram name="Page-1" id="AZl5n2Z-xv-6YmWAkerQ">
    <mxGraphModel grid="1" page="1" gridSize="10" guides="1" tooltips="1" connect="1" arrows="1" fold="1" pageScale="1" pageWidth="827" pageHeight="1169" math="0" shadow="0">
      <root>
        <mxCell id="0" />
        <mxCell id="1" parent="0" />
        <mxCell id="9Rn9oVYCQtDBo2JNrY6k-44" value="" style="rounded=1;whiteSpace=wrap;html=1;arcSize=8;fillColor=none;strokeWidth=2;" vertex="1" parent="1">
          <mxGeometry x="290" y="240" width="270" height="280" as="geometry" />
        </mxCell>
        <mxCell id="9Rn9oVYCQtDBo2JNrY6k-2" value="&lt;b&gt;Interfaz&lt;br&gt;UART&lt;br&gt;ESP32 - USB&lt;br&gt;&lt;/b&gt;" style="rounded=1;whiteSpace=wrap;html=1;fillColor=none;strokeWidth=2;" vertex="1" parent="1">
          <mxGeometry x="310" y="430" width="110" height="70" as="geometry" />
        </mxCell>
        <mxCell id="9Rn9oVYCQtDBo2JNrY6k-3" value="&lt;b&gt;Módulo&lt;br&gt;USB C&lt;br&gt;&lt;/b&gt;" style="rounded=1;whiteSpace=wrap;html=1;fillColor=none;strokeWidth=2;" vertex="1" parent="1">
          <mxGeometry x="440" y="440" width="100" height="60" as="geometry" />
        </mxCell>
        <mxCell id="9Rn9oVYCQtDBo2JNrY6k-4" value="&lt;b&gt;Interfaz&lt;br&gt;UART&lt;br&gt;ESP32 - Logger&lt;br&gt;&lt;/b&gt;" style="rounded=1;whiteSpace=wrap;html=1;fillColor=none;strokeWidth=2;" vertex="1" parent="1">
          <mxGeometry x="310" y="270" width="110" height="60" as="geometry" />
        </mxCell>
        <mxCell id="9Rn9oVYCQtDBo2JNrY6k-6" value="&lt;b&gt;Firmware&lt;/b&gt;" style="rounded=1;whiteSpace=wrap;html=1;fillColor=none;strokeWidth=2;" vertex="1" parent="1">
          <mxGeometry x="380" y="370" width="100" height="40" as="geometry" />
        </mxCell>
        <mxCell id="9Rn9oVYCQtDBo2JNrY6k-7" value="&lt;b&gt;Alimentación&lt;br&gt;5V&lt;br&gt;&lt;/b&gt;" style="rounded=1;whiteSpace=wrap;html=1;fillColor=none;strokeWidth=2;" vertex="1" parent="1">
          <mxGeometry x="440" y="270" width="100" height="60" as="geometry" />
        </mxCell>
        <mxCell id="9Rn9oVYCQtDBo2JNrY6k-8" value="ESP32" style="text;html=1;strokeColor=none;fillColor=none;align=center;verticalAlign=middle;whiteSpace=wrap;rounded=0;fontStyle=1;fontSize=13;" vertex="1" parent="1">
          <mxGeometry x="400" y="240" width="60" height="30" as="geometry" />
        </mxCell>
        <mxCell id="9Rn9oVYCQtDBo2JNrY6k-9" value="Alimentación externa" style="rounded=1;whiteSpace=wrap;html=1;fontStyle=1;fillColor=none;strokeWidth=2;" vertex="1" parent="1">
          <mxGeometry x="590" y="270" width="110" height="60" as="geometry" />
        </mxCell>
        <mxCell id="gq82XVnaDERFkmPNpvWh-1" value="" style="endArrow=classic;startArrow=classic;html=1;rounded=0;entryX=0.5;entryY=1;entryDx=0;entryDy=0;exitX=0.5;exitY=0;exitDx=0;exitDy=0;fillColor=#dae8fc;strokeColor=#6c8ebf;" edge="1" parent="1" source="9Rn9oVYCQtDBo2JNrY6k-6" target="9Rn9oVYCQtDBo2JNrY6k-4">
          <mxGeometry width="50" height="50" relative="1" as="geometry">
            <mxPoint x="350" y="390" as="sourcePoint" />
            <mxPoint x="400" y="340" as="targetPoint" />
            <Array as="points">
              <mxPoint x="430" y="350" />
              <mxPoint x="365" y="350" />
            </Array>
          </mxGeometry>
        </mxCell>
        <mxCell id="gq82XVnaDERFkmPNpvWh-14" value="" style="endArrow=classic;startArrow=classic;html=1;rounded=0;exitX=0.5;exitY=0;exitDx=0;exitDy=0;fillColor=#dae8fc;strokeColor=#6c8ebf;" edge="1" parent="1">
          <mxGeometry width="50" height="50" relative="1" as="geometry">
            <mxPoint x="495" y="440" as="sourcePoint" />
            <mxPoint x="430" y="410" as="targetPoint" />
            <Array as="points">
              <mxPoint x="495" y="420" />
              <mxPoint x="430" y="420" />
            </Array>
          </mxGeometry>
        </mxCell>
        <mxCell id="gq82XVnaDERFkmPNpvWh-17" value="" style="endArrow=classic;startArrow=classic;html=1;rounded=0;fillColor=#e51400;strokeColor=#B20000;exitX=0;exitY=0.5;exitDx=0;exitDy=0;" edge="1" parent="1" source="9Rn9oVYCQtDBo2JNrY6k-9">
          <mxGeometry width="50" height="50" relative="1" as="geometry">
            <mxPoint x="580" y="299.65999999999997" as="sourcePoint" />
            <mxPoint x="540" y="299.65999999999997" as="targetPoint" />
            <Array as="points">
              <mxPoint x="570" y="300" />
              <mxPoint x="555" y="299.65999999999997" />
            </Array>
          </mxGeometry>
        </mxCell>
        <mxCell id="gq82XVnaDERFkmPNpvWh-18" value="" style="endArrow=classic;startArrow=classic;html=1;rounded=0;exitX=0.45;exitY=0.007;exitDx=0;exitDy=0;fillColor=#dae8fc;strokeColor=#6c8ebf;exitPerimeter=0;entryX=0.5;entryY=1;entryDx=0;entryDy=0;" edge="1" parent="1" source="9Rn9oVYCQtDBo2JNrY6k-2" target="9Rn9oVYCQtDBo2JNrY6k-6">
          <mxGeometry width="50" height="50" relative="1" as="geometry">
            <mxPoint x="505" y="450" as="sourcePoint" />
            <mxPoint x="440" y="420" as="targetPoint" />
            <Array as="points">
              <mxPoint x="360" y="420" />
              <mxPoint x="430" y="420" />
            </Array>
          </mxGeometry>
        </mxCell>
        <mxCell id="gq82XVnaDERFkmPNpvWh-20" value="" style="endArrow=classic;startArrow=classic;html=1;rounded=0;fillColor=#e3c800;strokeColor=#B09500;exitX=0;exitY=0.25;exitDx=0;exitDy=0;entryX=1;entryY=0.5;entryDx=0;entryDy=0;" edge="1" parent="1" source="9Rn9oVYCQtDBo2JNrY6k-6" target="gq82XVnaDERFkmPNpvWh-21">
          <mxGeometry width="50" height="50" relative="1" as="geometry">
            <mxPoint x="414" y="329.99999999999994" as="sourcePoint" />
            <mxPoint x="374" y="329.99999999999994" as="targetPoint" />
            <Array as="points">
              <mxPoint x="360" y="380" />
            </Array>
          </mxGeometry>
        </mxCell>
        <mxCell id="gq82XVnaDERFkmPNpvWh-21" value="&lt;b&gt;Pines de conexionado de base&lt;br&gt;&lt;/b&gt;" style="rounded=1;whiteSpace=wrap;html=1;fillColor=none;strokeWidth=2;" vertex="1" parent="1">
          <mxGeometry x="170" y="350" width="100" height="60" as="geometry" />
        </mxCell>
      </root>
    </mxGraphModel>
  </diagram>
</mxfile>
